HIERARCHY
ROOT Pelvis
{
	OFFSET 0.000000 0.000000 0.000000
	CHANNELS 6 Xposition Yposition Zposition Xrotation Yrotation Zrotation
	JOINT LeftUpLeg_virtual
	{
		OFFSET 0.000000 0.000000 0.000000
		CHANNELS 3 Xrotation Yrotation Zrotation
		JOINT LeftUpLeg
		{
			OFFSET 8.479700 -4.795502 -0.379100
			CHANNELS 3 Xrotation Yrotation Zrotation
			JOINT LeftLeg
			{
				OFFSET 0.024144 -32.555107 0.112900
				CHANNELS 3 Xrotation Yrotation Zrotation
				JOINT LeftFoot
				{
					OFFSET -0.024144 -32.638630 -3.012600
					CHANNELS 3 Xrotation Yrotation Zrotation
					JOINT LeftToeBase
					{
						OFFSET 0.970200 -13.225400 11.864200
						CHANNELS 3 Xrotation Yrotation Zrotation
						End Site
						{
							OFFSET 0 0 0
						}
					}
				}
			}
		}
	}
	JOINT RightUpLeg_virtual
	{
		OFFSET 0.000000 0.000000 0.000000
		CHANNELS 3 Xrotation Yrotation Zrotation
		JOINT RightUpLeg
		{
			OFFSET -8.479700 -4.795502 -0.379100
			CHANNELS 3 Xrotation Yrotation Zrotation
			JOINT RightLeg
			{
				OFFSET -0.023144 -32.555092 0.112900
				CHANNELS 3 Xrotation Yrotation Zrotation
				JOINT RightFoot
				{
					OFFSET 0.023144 -32.638641 -3.012700
					CHANNELS 3 Xrotation Yrotation Zrotation
					JOINT RightToeBase
					{
						OFFSET -0.970200 -13.225400 11.864200
						CHANNELS 3 Xrotation Yrotation Zrotation
						End Site
						{
							OFFSET 0 0 0
						}
					}
				}
			}
		}
	}
	JOINT Hips_virtual
	{
		OFFSET 0.000000 0.000000 0.000000
		CHANNELS 3 Xrotation Yrotation Zrotation
		JOINT Hips
		{
			OFFSET -0.000000 -0.000000 -0.000000
			CHANNELS 3 Xrotation Yrotation Zrotation
			JOINT Spine
			{
				OFFSET 0.000000 7.722000 1.166200
				CHANNELS 3 Xrotation Yrotation Zrotation
				JOINT Spine1
				{
					OFFSET 0.000000 12.024101 0.248800
					CHANNELS 3 Xrotation Yrotation Zrotation
					JOINT Spine2
					{
						OFFSET 0.000000 11.502998 -0.491200
						CHANNELS 3 Xrotation Yrotation Zrotation
						JOINT Neck_virtual
						{
							OFFSET 0.000000 0.000000 0.000000
							CHANNELS 3 Xrotation Yrotation Zrotation
							JOINT Neck
							{
								OFFSET 0.000000 18.430702 -3.123100
								CHANNELS 3 Xrotation Yrotation Zrotation
								JOINT Head
								{
									OFFSET 0.000000 9.051102 1.034000
									CHANNELS 3 Xrotation Yrotation Zrotation
									End Site
									{
										OFFSET 0 0 0
									}
								}
							}
						}
						JOINT LeftShoulder_virtual
						{
							OFFSET 0.000000 0.000000 0.000000
							CHANNELS 3 Xrotation Yrotation Zrotation
							JOINT LeftShoulder
							{
								OFFSET 6.197800 13.665199 -4.064700
								CHANNELS 3 Xrotation Yrotation Zrotation
								JOINT LeftArm
								{
									OFFSET 7.778100 -0.187103 -1.709300
									CHANNELS 3 Xrotation Yrotation Zrotation
									JOINT LeftForeArm
									{
										OFFSET 22.049376 0.000000 0.000000
										CHANNELS 3 Xrotation Yrotation Zrotation
										JOINT LeftHand
										{
											OFFSET 23.009392 0.000000 0.000000
											CHANNELS 3 Xrotation Yrotation Zrotation
											End Site
											{
												OFFSET 0 0 0
											}
										}
									}
								}
							}
						}
						JOINT RightShoulder_virtual
						{
							OFFSET 0.000000 0.000000 0.000000
							CHANNELS 3 Xrotation Yrotation Zrotation
							JOINT RightShoulder
							{
								OFFSET -6.197800 13.665199 -4.064700
								CHANNELS 3 Xrotation Yrotation Zrotation
								JOINT RightArm
								{
									OFFSET -7.778100 -0.187103 -1.709300
									CHANNELS 3 Xrotation Yrotation Zrotation
									JOINT RightForeArm
									{
										OFFSET -22.049376 0.000000 0.000000
										CHANNELS 3 Xrotation Yrotation Zrotation
										JOINT RightHand
										{
											OFFSET -23.009392 0.000000 0.000000
											CHANNELS 3 Xrotation Yrotation Zrotation
											End Site
											{
												OFFSET 0 0 0
											}
										}
									}
								}
							}
						}
					}
				}
			}
		}
	}
}
MOTION
Frames: 5
Frame Time: 0.03333333
-0.551949 171.246796 1.128309 0.000000 0.000000 0.000000 -4.557005 4.885695 4.242146 -6.160023 16.408795 7.895149 10.204486 -7.983987 -0.386979 -1.561729 0.418159 -6.415455 0.000000 0.000000 0.000000 -4.557005 4.885695 4.242146 -1.468414 -10.580947 -5.135994 21.732472 5.850014 0.299224 -24.866680 -1.204575 4.186534 0.000000 0.000000 0.000000 -4.557005 4.885695 4.242146 0.000000 0.000000 0.000000 4.643746 -0.688980 1.293129 9.932384 -0.680240 3.008160 0.000000 0.000000 0.000000 9.936604 -0.617923 3.002062 -0.494626 1.768445 -5.437061 0.000000 0.000000 0.000000 9.936604 -0.617923 3.002062 -0.221758 14.341896 -11.465856 4.441018 -10.208758 -60.164479 0.000005 -50.304446 0.000012 0.000000 0.000000 0.000000 9.936604 -0.617923 3.002062 1.119624 3.440111 7.346929 -5.089680 8.252984 56.488451 0.000015 38.764544 -0.000021 0.000000 0.000000 0.000000 
-0.569439 171.226166 1.085463 0.000000 0.000000 0.000000 -4.306200 4.889959 4.229352 -6.677287 16.259124 7.937172 10.681824 -7.981246 -0.386738 -1.846072 0.440468 -6.345856 0.000000 0.000000 0.000000 -4.306200 4.889959 4.229352 -1.757926 -10.562894 -5.129417 21.772831 5.845634 0.299093 -25.005930 -1.205753 4.125185 0.000000 0.000000 0.000000 -4.306200 4.889959 4.229352 0.000000 0.000001 0.000000 4.615133 -0.685729 1.296787 9.886747 -0.664537 3.002675 0.000000 0.000000 0.000000 9.891312 -0.602347 2.995068 -0.542377 1.841335 -5.558724 0.000000 0.000000 0.000000 9.891312 -0.602347 2.995068 -0.219945 14.506518 -11.612860 4.361425 -10.445360 -59.944677 -0.000000 -50.526304 0.000002 0.000000 0.000000 0.000000 9.891312 -0.602347 2.995068 1.111066 3.468512 7.163198 -4.424842 9.153712 56.002801 0.000006 39.178624 -0.000008 0.000000 0.000000 0.000000 
-0.581767 171.200317 1.039812 0.000000 0.000000 0.000000 -4.043609 4.914426 4.218131 -7.276806 16.103783 7.984118 11.301517 -7.802082 -0.377443 -2.217869 0.471960 -6.295638 0.000000 0.000000 0.000000 -4.043609 4.914426 4.218131 -2.075769 -10.543400 -5.128416 21.848856 5.827882 0.298286 -25.171569 -1.208145 4.061035 0.000000 0.000000 0.000000 -4.043609 4.914426 4.218131 0.000000 0.000000 0.000000 4.582916 -0.685812 1.296109 9.837528 -0.656224 2.999173 0.000000 0.000000 0.000000 9.842319 -0.594123 2.990732 -0.552508 1.913018 -5.689796 0.000000 0.000000 0.000000 9.842319 -0.594123 2.990732 -0.217726 14.595751 -11.694877 4.265772 -10.605524 -59.786292 -0.000001 -50.764117 -0.000004 0.000000 0.000000 0.000000 9.842319 -0.594123 2.990732 1.104810 3.548998 6.940645 -3.653390 10.119989 55.385242 0.000008 39.770730 -0.000016 0.000000 0.000000 0.000000 
-0.589194 171.168304 0.986334 0.000000 0.000000 0.000000 -3.769024 4.964418 4.210266 -7.972233 15.957617 8.027508 12.088232 -7.296343 -0.351380 -2.663621 0.514465 -6.293074 0.000000 0.000000 0.000000 -3.769024 4.964418 4.210266 -2.438191 -10.520357 -5.135051 21.980911 5.790302 0.296473 -25.362804 -1.210787 3.989844 0.000000 0.000000 0.000000 -3.769024 4.964418 4.210266 0.000000 0.000000 -0.000001 4.550056 -0.688935 1.291276 9.789340 -0.654193 2.995627 0.000000 0.000000 0.000000 9.794233 -0.592127 2.986811 -0.544863 1.982233 -5.822367 0.000000 0.000000 0.000000 9.794233 -0.592127 2.986811 -0.216474 14.635951 -11.728230 4.166840 -10.728395 -59.653677 0.000009 -51.016606 0.000016 0.000000 0.000000 0.000000 9.794233 -0.592127 2.986811 1.100251 3.659959 6.697152 -2.825906 11.105689 54.696145 -0.000007 40.467160 0.000000 0.000000 0.000000 0.000000 
-0.592415 171.129364 0.919607 0.000000 0.000000 0.000000 -3.490588 5.044834 4.206493 -8.767771 15.839246 8.056257 13.062928 -6.375818 -0.303977 -3.162963 0.569299 -6.351717 0.000000 0.000000 0.000000 -3.490588 5.044834 4.206493 -2.850430 -10.490835 -5.149481 22.184337 5.721734 0.293079 -25.575252 -1.214598 3.915546 0.000000 0.000000 0.000000 -3.490588 5.044834 4.206493 0.000000 0.000000 0.000000 4.518885 -0.696093 1.278949 9.747389 -0.660640 2.989694 0.000000 0.000000 0.000000 9.752283 -0.598475 2.981115 -0.524609 2.045887 -5.949945 0.000000 0.000000 0.000000 9.752283 -0.598475 2.981115 -0.217901 14.614124 -11.691990 4.068845 -10.818485 -59.539982 -0.000012 -51.290035 -0.000028 0.000000 0.000000 0.000000 9.752283 -0.598475 2.981115 1.097557 3.801373 6.436559 -1.977650 12.089241 53.953932 -0.000013 41.267620 0.000020 0.000000 0.000000 0.000000 
